<svg width="4830" height="1803" xmlns="http://www.w3.org/2000/svg" xmlns:xlink="http://www.w3.org/1999/xlink" xml:space="preserve" overflow="hidden"><g transform="translate(-98 -62)"><rect x="98.5002" y="1115.5" width="538" height="749" stroke="#000000" stroke-width="1.14583" stroke-miterlimit="8" fill="none"/><rect x="98.5002" y="392.5" width="539" height="720" stroke="#000000" stroke-width="1.14583" stroke-miterlimit="8" fill="none"/><rect x="98.5002" y="993.5" width="142" height="119" stroke="#000000" stroke-width="1.14583" stroke-miterlimit="8" fill="none"/><rect x="98.5002" y="915.5" width="70.9998" height="77" stroke="#000000" stroke-width="1.14583" stroke-miterlimit="8" fill="none"/><rect x="638.5" y="152.5" width="4288" height="1355" stroke="#000000" stroke-width="1.14583" stroke-miterlimit="8" fill="none"/><rect x="1003.5" y="152.5" width="2134" height="214" stroke="#000000" stroke-width="1.14583" stroke-miterlimit="8" fill="none"/><rect x="1451.5" y="368.5" width="355" height="84.9999" stroke="#000000" stroke-width="1.14583" stroke-miterlimit="8" fill="none"/><rect x="1003.5" y="541.5" width="2136" height="212" stroke="#000000" stroke-width="1.14583" stroke-miterlimit="8" fill="none"/><rect x="1003.5" y="753.5" width="2136" height="244" stroke="#000000" stroke-width="1.14583" stroke-miterlimit="8" fill="none"/><rect x="1192.5" y="998.5" width="613" height="197" stroke="#000000" stroke-width="1.14583" stroke-miterlimit="8" fill="none"/><rect x="1803.5" y="998.5" width="743" height="197" stroke="#000000" stroke-width="1.14583" stroke-miterlimit="8" fill="none"/><rect x="2546.5" y="998.5" width="339" height="197" stroke="#000000" stroke-width="1.14583" stroke-miterlimit="8" fill="none"/><rect x="2886.5" y="998.5" width="253" height="197" stroke="#000000" stroke-width="1.14583" stroke-miterlimit="8" fill="none"/><rect x="1003.5" y="1262.5" width="2136" height="245" stroke="#000000" stroke-width="1.14583" stroke-miterlimit="8" fill="none"/><rect x="1806.5" y="368.5" width="366" height="84.9999" stroke="#000000" stroke-width="1.14583" stroke-miterlimit="8" fill="none"/><rect x="2171.5" y="368.5" width="375" height="84.9999" stroke="#000000" stroke-width="1.14583" stroke-miterlimit="8" fill="none"/><rect x="2547.5" y="368.5" width="316" height="84.9999" stroke="#000000" stroke-width="1.14583" stroke-miterlimit="8" fill="none"/><rect x="2862.5" y="368.5" width="275" height="84.9999" stroke="#000000" stroke-width="1.14583" stroke-miterlimit="8" fill="none"/><rect x="3610.5" y="152.5" width="1317" height="243" stroke="#000000" stroke-width="1.14583" stroke-miterlimit="8" fill="none"/><rect x="3574.5" y="1117.5" width="1352" height="390" stroke="#000000" stroke-width="1.14583" stroke-miterlimit="8" fill="none"/><rect x="240.5" y="1053.5" width="92.9998" height="58.9998" stroke="#000000" stroke-width="1.14583" stroke-miterlimit="8" fill="none"/><path d="M4738.5 754.5 4738.5 1008.6" stroke="#000000" stroke-width="1.14583" stroke-miterlimit="8" fill="none" fill-rule="evenodd"/><rect x="4832.5" y="888.5" width="95" height="229" stroke="#000000" stroke-width="1.14583" stroke-miterlimit="8" fill="none"/><rect x="4832.5" y="1116.5" width="95" height="83.9999" stroke="#000000" stroke-width="1.14583" stroke-miterlimit="8" fill="none"/><rect x="4831.5" y="848.5" width="95" height="39.0002" stroke="#000000" stroke-width="1.14583" stroke-miterlimit="8" fill="none"/><rect x="4832.5" y="762.5" width="95" height="85.9999" stroke="#000000" stroke-width="1.14583" stroke-miterlimit="8" fill="none"/><rect x="4851.5" y="679.5" width="76.0005" height="85.9999" stroke="#000000" stroke-width="1.14583" stroke-miterlimit="8" fill="none"/><path d="M635.5 753.5 1003.95 753.5" stroke="#000000" stroke-width="1.14583" stroke-miterlimit="8" fill="none" fill-rule="evenodd"/><rect x="240.5" y="993.5" width="92.9998" height="60.0002" stroke="#000000" stroke-width="1.14583" stroke-miterlimit="8" fill="none"/><rect x="98.5002" y="1112.5" width="70.9998" height="78" stroke="#000000" stroke-width="1.14583" stroke-miterlimit="8" fill="none"/><rect x="638.5" y="1507.5" width="4288" height="357" stroke="#000000" stroke-width="1.14583" stroke-miterlimit="8" fill="none"/><path d="M3138.5 753.5 4738.29 753.5" stroke="#000000" stroke-width="1.14583" stroke-miterlimit="8" fill="none" fill-rule="evenodd"/><path d="M4736.5 1005.5 4924.03 1005.5" stroke="#000000" stroke-width="1.14583" stroke-miterlimit="8" fill="none" fill-rule="evenodd"/><rect x="4831.5" y="1201.5" width="96.0005" height="39.0002" stroke="#000000" stroke-width="1.14583" stroke-miterlimit="8" fill="none"/><rect x="4849.5" y="1240.5" width="76" height="85.9999" stroke="#000000" stroke-width="1.14583" stroke-miterlimit="8" fill="none"/><rect x="100.5" y="62.5001" width="4826" height="1802" stroke="#000000" stroke-width="1.14583" stroke-miterlimit="8" fill="none"/></g></svg>