<svg width="5004" height="2048" xmlns="http://www.w3.org/2000/svg" xmlns:xlink="http://www.w3.org/1999/xlink" xml:space="preserve" overflow="hidden"><g transform="translate(-3 -10)"><rect x="3.49993" y="10.5002" width="5002" height="2047" stroke="#000000" stroke-width="1.14583" stroke-miterlimit="8" fill="none"/><rect x="3.49993" y="614.5" width="477" height="647" stroke="#000000" stroke-width="1.14583" stroke-miterlimit="8" fill="none"/><rect x="3.49993" y="10.5002" width="1342" height="600" stroke="#000000" stroke-width="1.14583" stroke-miterlimit="8" fill="none"/><rect x="1345.5" y="10.5002" width="721" height="236" stroke="#000000" stroke-width="1.14583" stroke-miterlimit="8" fill="none"/><rect x="1345.5" y="246.5" width="719" height="364" stroke="#000000" stroke-width="1.14583" stroke-miterlimit="8" fill="none"/><rect x="2064.5" y="10.5002" width="349" height="236" stroke="#000000" stroke-width="1.14583" stroke-miterlimit="8" fill="none"/><rect x="2413.5" y="10.5002" width="772" height="236" stroke="#000000" stroke-width="1.14583" stroke-miterlimit="8" fill="none"/><rect x="2064.5" y="10.5002" width="1852" height="600" stroke="#000000" stroke-width="1.14583" stroke-miterlimit="8" fill="none"/><rect x="3.49993" y="1334.5" width="477" height="723" stroke="#000000" stroke-width="1.14583" stroke-miterlimit="8" fill="none"/><rect x="3916.5" y="10.5002" width="1089" height="1724" stroke="#000000" stroke-width="1.14583" stroke-miterlimit="8" fill="none"/><rect x="3280.5" y="1207.5" width="636" height="271" stroke="#000000" stroke-width="1.14583" stroke-miterlimit="8" fill="none"/><path d="M481.5 1258.5 570.94 1258.5 570.94 1375.7 1341 1375.7" stroke="#000000" stroke-width="1.14583" stroke-miterlimit="8" fill="none" fill-rule="evenodd"/><rect x="1345.5" y="1371.5" width="1582" height="364" stroke="#000000" stroke-width="1.14583" stroke-miterlimit="8" fill="none"/><path d="M480.5 1456.5 1247.46 1456.5 1247.46 1830.14 5005.04 1830.14" stroke="#000000" stroke-width="1.14583" stroke-miterlimit="8" fill="none" fill-rule="evenodd"/><path d="M1344.5 611.5 1344.5 1366.55" stroke="#000000" stroke-width="1.14583" stroke-miterlimit="8" fill="none" fill-rule="evenodd"/><path d="M2066.26 612.5 2066.26 875.469 1990.5 875.469 1990.5 1138.44" stroke="#000000" stroke-width="1.14583" stroke-miterlimit="8" fill="none" fill-rule="evenodd"/><path d="M2038.1 1134.5 2038.1 1285.75 1976.5 1285.75 1976.5 1368.25" stroke="#000000" stroke-width="1.14583" stroke-miterlimit="8" fill="none" fill-rule="evenodd"/><rect x="3283.5" y="474.5" width="633" height="274" stroke="#000000" stroke-width="1.14583" stroke-miterlimit="8" fill="none"/><rect x="615.5" y="10.5002" width="730" height="236" stroke="#000000" stroke-width="1.14583" stroke-miterlimit="8" fill="none"/><path d="M1993.5 1133.5 2042.78 1133.5" stroke="#000000" stroke-width="1.14583" stroke-miterlimit="8" fill="none" fill-rule="evenodd"/><rect x="4357.5" y="607.5" width="648" height="168" stroke="#000000" stroke-width="1.14583" stroke-miterlimit="8" fill="none"/><rect x="4604.5" y="10.5002" width="402" height="597" stroke="#000000" stroke-width="1.14583" stroke-miterlimit="8" fill="none"/><rect x="4363.5" y="996.5" width="514" height="338" stroke="#000000" stroke-width="1.14583" stroke-miterlimit="8" fill="none"/><rect x="4532.5" y="1334.5" width="345" height="134" stroke="#000000" stroke-width="1.14583" stroke-miterlimit="8" fill="none"/><rect x="4529.5" y="867.5" width="348" height="129" stroke="#000000" stroke-width="1.14583" stroke-miterlimit="8" fill="none"/><rect x="4877.5" y="867.5" width="128" height="601" stroke="#000000" stroke-width="1.14583" stroke-miterlimit="8" fill="none"/><rect x="4357.5" y="1558.5" width="648" height="176" stroke="#000000" stroke-width="1.14583" stroke-miterlimit="8" fill="none"/><path d="M2926.5 1734.5 3916.34 1734.5" stroke="#000000" stroke-width="1.14583" stroke-miterlimit="8" fill="none" fill-rule="evenodd"/></g></svg>