<svg width="576" height="275" xmlns="http://www.w3.org/2000/svg" xmlns:xlink="http://www.w3.org/1999/xlink" xml:space="preserve" overflow="hidden"><g transform="translate(-3490 -814)"><rect x="3491" y="913" width="24.9998" height="27.0002" stroke="#042433" stroke-width="2.29167" stroke-miterlimit="8" fill="none"/><rect x="3580" y="901" width="54" height="48.0001" stroke="#042433" stroke-width="2.29167" stroke-miterlimit="8" fill="none"/><rect x="3716" y="901" width="56" height="50.0002" stroke="#042433" stroke-width="2.29167" stroke-miterlimit="8" fill="none"/><rect x="3634" y="815" width="58.9998" height="49.9998" stroke="#042433" stroke-width="2.29167" stroke-miterlimit="8" fill="none"/><rect x="3634" y="901" width="58.9998" height="50.0002" stroke="#042433" stroke-width="2.29167" stroke-miterlimit="8" fill="none"/><rect x="3644" y="988" width="38.9998" height="100" stroke="#042433" stroke-width="2.29167" stroke-miterlimit="8" fill="none"/><rect x="3535" y="892" width="45" height="75.9999" stroke="#042433" stroke-width="2.29167" stroke-miterlimit="8" fill="none"/><rect x="3817" y="868" width="38.0002" height="82.0002" stroke="#042433" stroke-width="2.29167" stroke-miterlimit="8" fill="none"/><rect x="3855" y="905" width="55.9998" height="45.0001" stroke="#042433" stroke-width="2.29167" stroke-miterlimit="8" fill="none"/><rect x="3912" y="871" width="39.0002" height="89.0001" stroke="#042433" stroke-width="2.29167" stroke-miterlimit="8" fill="none"/><rect x="3924" y="961" width="16.0002" height="34.9997" stroke="#042433" stroke-width="2.29167" stroke-miterlimit="8" fill="none"/><rect x="3952" y="903" width="74" height="47.0001" stroke="#042433" stroke-width="2.29167" stroke-miterlimit="8" fill="none"/><rect x="4025" y="871" width="39.9998" height="89.0001" stroke="#042433" stroke-width="2.29167" stroke-miterlimit="8" fill="none"/><rect x="4038" y="961" width="16.9998" height="34.9997" stroke="#042433" stroke-width="2.29167" stroke-miterlimit="8" fill="none"/><rect x="3501" y="862" width="33" height="50.9999" stroke="#042433" stroke-width="2.29167" stroke-miterlimit="8" fill="none"/><rect x="3501" y="940" width="33" height="51.9999" stroke="#042433" stroke-width="2.29167" stroke-miterlimit="8" fill="none"/><rect x="3650" y="951" width="27.0002" height="35.9998" stroke="#042433" stroke-width="2.29167" stroke-miterlimit="8" fill="none"/><rect x="3714" y="816" width="59.0002" height="49.9998" stroke="#042433" stroke-width="2.29167" stroke-miterlimit="8" fill="none"/><rect x="3730" y="952" width="26.9998" height="36.0001" stroke="#042433" stroke-width="2.29167" stroke-miterlimit="8" fill="none"/><rect x="3650" y="866" width="27.0002" height="35.0001" stroke="#042433" stroke-width="2.29167" stroke-miterlimit="8" fill="none"/><rect x="3730" y="866" width="26.9998" height="35.0001" stroke="#042433" stroke-width="2.29167" stroke-miterlimit="8" fill="none"/><rect x="3724" y="987" width="40.0002" height="101" stroke="#042433" stroke-width="2.29167" stroke-miterlimit="8" fill="none"/><rect x="3772" y="909" width="45" height="41.0002" stroke="#042433" stroke-width="2.29167" stroke-miterlimit="8" fill="none"/><rect x="3692" y="906" width="24" height="41.9999" stroke="#042433" stroke-width="2.29167" stroke-miterlimit="8" fill="none"/></g></svg>