<svg width="566" height="272" xmlns="http://www.w3.org/2000/svg" xmlns:xlink="http://www.w3.org/1999/xlink" xml:space="preserve" overflow="hidden"><g transform="translate(-3496 -454)"><rect x="3497" y="601" width="25" height="27.0002" stroke="#042433" stroke-width="2.29167" stroke-miterlimit="8" fill="none"/><rect x="3586" y="589" width="86" height="48.0001" stroke="#042433" stroke-width="2.29167" stroke-miterlimit="8" fill="none"/><rect x="3731" y="589" width="81.9998" height="50.0002" stroke="#042433" stroke-width="2.29167" stroke-miterlimit="8" fill="none"/><rect x="3668" y="675" width="58.9998" height="49.9998" stroke="#042433" stroke-width="2.29167" stroke-miterlimit="8" fill="none"/><rect x="3672" y="589" width="59.0002" height="50.0002" stroke="#042433" stroke-width="2.29167" stroke-miterlimit="8" fill="none"/><rect x="3657" y="555" width="88.9998" height="33" stroke="#042433" stroke-width="2.29167" stroke-miterlimit="8" fill="none"/><rect x="3682" y="455" width="39.0002" height="100" stroke="#042433" stroke-width="2.29167" stroke-miterlimit="8" fill="none"/><rect x="3542" y="580" width="44" height="76" stroke="#042433" stroke-width="2.29167" stroke-miterlimit="8" fill="none"/><rect x="3812" y="595" width="39.0002" height="37.9998" stroke="#042433" stroke-width="2.29167" stroke-miterlimit="8" fill="none"/><rect x="3851" y="593" width="54" height="41.9999" stroke="#042433" stroke-width="2.29167" stroke-miterlimit="8" fill="none"/><rect x="3905" y="580" width="41" height="90.0001" stroke="#042433" stroke-width="2.29167" stroke-miterlimit="8" fill="none"/><rect x="3917" y="544" width="16.9998" height="35.9998" stroke="#042433" stroke-width="2.29167" stroke-miterlimit="8" fill="none"/><rect x="3947" y="593" width="70.0002" height="41.9999" stroke="#042433" stroke-width="2.29167" stroke-miterlimit="8" fill="none"/><rect x="4018" y="584" width="43" height="84.9999" stroke="#042433" stroke-width="2.29167" stroke-miterlimit="8" fill="none"/><rect x="4027" y="548" width="16.9998" height="36.0001" stroke="#042433" stroke-width="2.29167" stroke-miterlimit="8" fill="none"/><rect x="3509" y="550" width="34" height="50.9999" stroke="#042433" stroke-width="2.29167" stroke-miterlimit="8" fill="none"/><rect x="3509" y="628" width="34" height="50.9999" stroke="#042433" stroke-width="2.29167" stroke-miterlimit="8" fill="none"/><rect x="3684" y="639" width="27.0002" height="36.0001" stroke="#042433" stroke-width="2.29167" stroke-miterlimit="8" fill="none"/></g></svg>