<svg width="178" height="52" xmlns="http://www.w3.org/2000/svg" xmlns:xlink="http://www.w3.org/1999/xlink" xml:space="preserve" overflow="hidden"><g transform="translate(-509 -573)"><rect x="644.5" y="586.5" width="40.9999" height="25.0001" stroke="#000000" stroke-width="1.14583" stroke-miterlimit="8" fill="none"/><path d="M571.5 599C571.5 584.917 582.917 573.5 597 573.5 611.083 573.5 622.5 584.917 622.5 599 622.5 613.083 611.083 624.5 597 624.5 582.917 624.5 571.5 613.083 571.5 599Z" stroke="#000000" stroke-width="1.14583" stroke-miterlimit="8" fill="none" fill-rule="evenodd"/><rect x="550.5" y="574.5" width="93.0002" height="49.0002" stroke="#000000" stroke-width="1.14583" stroke-miterlimit="8" fill="none"/><rect x="566.5" y="574.5" width="60.9998" height="49.0002" stroke="#000000" stroke-width="1.14583" stroke-miterlimit="8" fill="none"/><path d="M597.5 574.5 597.5 624" stroke="#000000" stroke-width="1.14583" stroke-miterlimit="8" fill="none" fill-rule="evenodd"/><rect x="509.5" y="586.5" width="40.0002" height="25.0001" stroke="#000000" stroke-width="1.14583" stroke-miterlimit="8" fill="none"/><path d="M509.5 598.5 685.808 598.5" stroke="#000000" stroke-width="1.14583" stroke-miterlimit="8" fill="none" fill-rule="evenodd"/><path d="M664.5 586.5 664.5 612.136" stroke="#000000" stroke-width="1.14583" stroke-miterlimit="8" fill="none" fill-rule="evenodd"/><path d="M529.5 586.5 529.5 612.136" stroke="#000000" stroke-width="1.14583" stroke-miterlimit="8" fill="none" fill-rule="evenodd"/></g></svg>